<mxfile host="app.diagrams.net" modified="2023-05-29T16:09:21.338Z" agent="Mozilla/5.0 (Windows NT 10.0; Win64; x64) AppleWebKit/537.36 (KHTML, like Gecko) Chrome/113.0.0.0 Safari/537.36" etag="QhkhQVKqmf47rn4fL7aG" version="21.3.4" type="device">
  <diagram name="Page-1" id="T6oiOWF6OeDajAnXDw0r">
    <mxGraphModel dx="1250" dy="695" grid="0" gridSize="10" guides="1" tooltips="1" connect="1" arrows="1" fold="1" page="0" pageScale="1" pageWidth="827" pageHeight="1169" math="0" shadow="0">
      <root>
        <mxCell id="0" />
        <mxCell id="1" parent="0" />
        <mxCell id="2LxV-rshxr4xkbD1bhXm-4" style="edgeStyle=orthogonalEdgeStyle;rounded=0;orthogonalLoop=1;jettySize=auto;html=1;" edge="1" parent="1" source="2LxV-rshxr4xkbD1bhXm-1" target="2LxV-rshxr4xkbD1bhXm-3">
          <mxGeometry relative="1" as="geometry" />
        </mxCell>
        <mxCell id="2LxV-rshxr4xkbD1bhXm-1" value="val" style="shape=step;perimeter=stepPerimeter;whiteSpace=wrap;html=1;fixedSize=1;" vertex="1" parent="1">
          <mxGeometry x="119" y="238" width="126" height="53" as="geometry" />
        </mxCell>
        <mxCell id="2LxV-rshxr4xkbD1bhXm-12" style="edgeStyle=orthogonalEdgeStyle;rounded=0;orthogonalLoop=1;jettySize=auto;html=1;" edge="1" parent="1" source="2LxV-rshxr4xkbD1bhXm-2" target="2LxV-rshxr4xkbD1bhXm-10">
          <mxGeometry relative="1" as="geometry" />
        </mxCell>
        <mxCell id="2LxV-rshxr4xkbD1bhXm-2" value="val - 1" style="shape=step;perimeter=stepPerimeter;whiteSpace=wrap;html=1;fixedSize=1;" vertex="1" parent="1">
          <mxGeometry x="421" y="358" width="126" height="53" as="geometry" />
        </mxCell>
        <mxCell id="2LxV-rshxr4xkbD1bhXm-7" style="edgeStyle=orthogonalEdgeStyle;rounded=0;orthogonalLoop=1;jettySize=auto;html=1;" edge="1" parent="1" source="2LxV-rshxr4xkbD1bhXm-3" target="2LxV-rshxr4xkbD1bhXm-5">
          <mxGeometry relative="1" as="geometry">
            <Array as="points">
              <mxPoint x="364" y="127" />
            </Array>
          </mxGeometry>
        </mxCell>
        <mxCell id="2LxV-rshxr4xkbD1bhXm-9" style="edgeStyle=orthogonalEdgeStyle;rounded=0;orthogonalLoop=1;jettySize=auto;html=1;entryX=0;entryY=0.5;entryDx=0;entryDy=0;" edge="1" parent="1" source="2LxV-rshxr4xkbD1bhXm-3" target="2LxV-rshxr4xkbD1bhXm-2">
          <mxGeometry relative="1" as="geometry" />
        </mxCell>
        <mxCell id="2LxV-rshxr4xkbD1bhXm-3" value="if val &amp;lt;= 1" style="triangle;whiteSpace=wrap;html=1;" vertex="1" parent="1">
          <mxGeometry x="285" y="238" width="90" height="91.5" as="geometry" />
        </mxCell>
        <mxCell id="2LxV-rshxr4xkbD1bhXm-5" value="1" style="shape=or;whiteSpace=wrap;html=1;" vertex="1" parent="1">
          <mxGeometry x="393" y="87" width="60" height="80" as="geometry" />
        </mxCell>
        <mxCell id="2LxV-rshxr4xkbD1bhXm-13" style="edgeStyle=orthogonalEdgeStyle;rounded=0;orthogonalLoop=1;jettySize=auto;html=1;entryX=0;entryY=0.5;entryDx=0;entryDy=0;entryPerimeter=0;" edge="1" parent="1" source="2LxV-rshxr4xkbD1bhXm-10" target="2LxV-rshxr4xkbD1bhXm-11">
          <mxGeometry relative="1" as="geometry" />
        </mxCell>
        <mxCell id="2LxV-rshxr4xkbD1bhXm-15" style="edgeStyle=orthogonalEdgeStyle;rounded=0;orthogonalLoop=1;jettySize=auto;html=1;" edge="1" parent="1" source="2LxV-rshxr4xkbD1bhXm-10" target="2LxV-rshxr4xkbD1bhXm-14">
          <mxGeometry relative="1" as="geometry" />
        </mxCell>
        <mxCell id="2LxV-rshxr4xkbD1bhXm-10" value="if val &amp;lt;= 1" style="triangle;whiteSpace=wrap;html=1;" vertex="1" parent="1">
          <mxGeometry x="626" y="319.5" width="90" height="91.5" as="geometry" />
        </mxCell>
        <mxCell id="2LxV-rshxr4xkbD1bhXm-11" value="1" style="shape=or;whiteSpace=wrap;html=1;" vertex="1" parent="1">
          <mxGeometry x="746" y="187" width="60" height="80" as="geometry" />
        </mxCell>
        <mxCell id="2LxV-rshxr4xkbD1bhXm-19" style="edgeStyle=orthogonalEdgeStyle;rounded=0;orthogonalLoop=1;jettySize=auto;html=1;" edge="1" parent="1" source="2LxV-rshxr4xkbD1bhXm-14" target="2LxV-rshxr4xkbD1bhXm-17">
          <mxGeometry relative="1" as="geometry" />
        </mxCell>
        <mxCell id="2LxV-rshxr4xkbD1bhXm-14" value="val - 1 - 1" style="shape=step;perimeter=stepPerimeter;whiteSpace=wrap;html=1;fixedSize=1;" vertex="1" parent="1">
          <mxGeometry x="696" y="506" width="126" height="53" as="geometry" />
        </mxCell>
        <mxCell id="2LxV-rshxr4xkbD1bhXm-16" style="edgeStyle=orthogonalEdgeStyle;rounded=0;orthogonalLoop=1;jettySize=auto;html=1;entryX=0;entryY=0.5;entryDx=0;entryDy=0;entryPerimeter=0;" edge="1" parent="1" source="2LxV-rshxr4xkbD1bhXm-17" target="2LxV-rshxr4xkbD1bhXm-18">
          <mxGeometry relative="1" as="geometry" />
        </mxCell>
        <mxCell id="2LxV-rshxr4xkbD1bhXm-21" style="edgeStyle=orthogonalEdgeStyle;rounded=0;orthogonalLoop=1;jettySize=auto;html=1;entryX=0.108;entryY=0.562;entryDx=0;entryDy=0;entryPerimeter=0;" edge="1" parent="1" source="2LxV-rshxr4xkbD1bhXm-17" target="2LxV-rshxr4xkbD1bhXm-20">
          <mxGeometry relative="1" as="geometry" />
        </mxCell>
        <mxCell id="2LxV-rshxr4xkbD1bhXm-17" value="if val &amp;lt;= 1" style="triangle;whiteSpace=wrap;html=1;" vertex="1" parent="1">
          <mxGeometry x="935" y="462" width="90" height="91.5" as="geometry" />
        </mxCell>
        <mxCell id="2LxV-rshxr4xkbD1bhXm-18" value="1" style="shape=or;whiteSpace=wrap;html=1;" vertex="1" parent="1">
          <mxGeometry x="1055" y="329.5" width="60" height="80" as="geometry" />
        </mxCell>
        <mxCell id="2LxV-rshxr4xkbD1bhXm-24" style="edgeStyle=orthogonalEdgeStyle;rounded=0;orthogonalLoop=1;jettySize=auto;html=1;" edge="1" parent="1" source="2LxV-rshxr4xkbD1bhXm-20" target="2LxV-rshxr4xkbD1bhXm-22">
          <mxGeometry relative="1" as="geometry" />
        </mxCell>
        <mxCell id="2LxV-rshxr4xkbD1bhXm-20" value="val - 1 - 1 - 1" style="shape=step;perimeter=stepPerimeter;whiteSpace=wrap;html=1;fixedSize=1;" vertex="1" parent="1">
          <mxGeometry x="1015" y="616" width="126" height="53" as="geometry" />
        </mxCell>
        <mxCell id="2LxV-rshxr4xkbD1bhXm-25" style="edgeStyle=orthogonalEdgeStyle;rounded=0;orthogonalLoop=1;jettySize=auto;html=1;entryX=0;entryY=0.5;entryDx=0;entryDy=0;entryPerimeter=0;" edge="1" parent="1" source="2LxV-rshxr4xkbD1bhXm-22" target="2LxV-rshxr4xkbD1bhXm-23">
          <mxGeometry relative="1" as="geometry" />
        </mxCell>
        <mxCell id="2LxV-rshxr4xkbD1bhXm-22" value="if val &amp;lt;= 1" style="triangle;whiteSpace=wrap;html=1;" vertex="1" parent="1">
          <mxGeometry x="1203" y="559.5" width="90" height="91.5" as="geometry" />
        </mxCell>
        <mxCell id="2LxV-rshxr4xkbD1bhXm-23" value="1" style="shape=or;whiteSpace=wrap;html=1;" vertex="1" parent="1">
          <mxGeometry x="1324" y="374" width="60" height="80" as="geometry" />
        </mxCell>
        <mxCell id="2LxV-rshxr4xkbD1bhXm-27" style="edgeStyle=orthogonalEdgeStyle;rounded=0;orthogonalLoop=1;jettySize=auto;html=1;" edge="1" parent="1" source="2LxV-rshxr4xkbD1bhXm-28" target="2LxV-rshxr4xkbD1bhXm-33">
          <mxGeometry relative="1" as="geometry" />
        </mxCell>
        <mxCell id="2LxV-rshxr4xkbD1bhXm-28" value="val" style="shape=step;perimeter=stepPerimeter;whiteSpace=wrap;html=1;fixedSize=1;" vertex="1" parent="1">
          <mxGeometry x="1248" y="622" width="126" height="53" as="geometry" />
        </mxCell>
        <mxCell id="2LxV-rshxr4xkbD1bhXm-29" style="edgeStyle=orthogonalEdgeStyle;rounded=0;orthogonalLoop=1;jettySize=auto;html=1;" edge="1" parent="1" source="2LxV-rshxr4xkbD1bhXm-30" target="2LxV-rshxr4xkbD1bhXm-37">
          <mxGeometry relative="1" as="geometry" />
        </mxCell>
        <mxCell id="2LxV-rshxr4xkbD1bhXm-30" value="val - 1" style="shape=step;perimeter=stepPerimeter;whiteSpace=wrap;html=1;fixedSize=1;" vertex="1" parent="1">
          <mxGeometry x="1550" y="742" width="126" height="53" as="geometry" />
        </mxCell>
        <mxCell id="2LxV-rshxr4xkbD1bhXm-31" style="edgeStyle=orthogonalEdgeStyle;rounded=0;orthogonalLoop=1;jettySize=auto;html=1;" edge="1" parent="1" source="2LxV-rshxr4xkbD1bhXm-33" target="2LxV-rshxr4xkbD1bhXm-34">
          <mxGeometry relative="1" as="geometry">
            <Array as="points">
              <mxPoint x="1493" y="511" />
            </Array>
          </mxGeometry>
        </mxCell>
        <mxCell id="2LxV-rshxr4xkbD1bhXm-32" style="edgeStyle=orthogonalEdgeStyle;rounded=0;orthogonalLoop=1;jettySize=auto;html=1;entryX=0;entryY=0.5;entryDx=0;entryDy=0;" edge="1" parent="1" source="2LxV-rshxr4xkbD1bhXm-33" target="2LxV-rshxr4xkbD1bhXm-30">
          <mxGeometry relative="1" as="geometry" />
        </mxCell>
        <mxCell id="2LxV-rshxr4xkbD1bhXm-33" value="if val &amp;lt;= 1" style="triangle;whiteSpace=wrap;html=1;" vertex="1" parent="1">
          <mxGeometry x="1414" y="622" width="90" height="91.5" as="geometry" />
        </mxCell>
        <mxCell id="2LxV-rshxr4xkbD1bhXm-34" value="1" style="shape=or;whiteSpace=wrap;html=1;" vertex="1" parent="1">
          <mxGeometry x="1522" y="471" width="60" height="80" as="geometry" />
        </mxCell>
        <mxCell id="2LxV-rshxr4xkbD1bhXm-35" style="edgeStyle=orthogonalEdgeStyle;rounded=0;orthogonalLoop=1;jettySize=auto;html=1;entryX=0;entryY=0.5;entryDx=0;entryDy=0;entryPerimeter=0;" edge="1" parent="1" source="2LxV-rshxr4xkbD1bhXm-37" target="2LxV-rshxr4xkbD1bhXm-38">
          <mxGeometry relative="1" as="geometry" />
        </mxCell>
        <mxCell id="2LxV-rshxr4xkbD1bhXm-36" style="edgeStyle=orthogonalEdgeStyle;rounded=0;orthogonalLoop=1;jettySize=auto;html=1;" edge="1" parent="1" source="2LxV-rshxr4xkbD1bhXm-37" target="2LxV-rshxr4xkbD1bhXm-40">
          <mxGeometry relative="1" as="geometry" />
        </mxCell>
        <mxCell id="2LxV-rshxr4xkbD1bhXm-37" value="if val &amp;lt;= 1" style="triangle;whiteSpace=wrap;html=1;" vertex="1" parent="1">
          <mxGeometry x="1755" y="703.5" width="90" height="91.5" as="geometry" />
        </mxCell>
        <mxCell id="2LxV-rshxr4xkbD1bhXm-38" value="1" style="shape=or;whiteSpace=wrap;html=1;" vertex="1" parent="1">
          <mxGeometry x="1875" y="571" width="60" height="80" as="geometry" />
        </mxCell>
        <mxCell id="2LxV-rshxr4xkbD1bhXm-39" style="edgeStyle=orthogonalEdgeStyle;rounded=0;orthogonalLoop=1;jettySize=auto;html=1;" edge="1" parent="1" source="2LxV-rshxr4xkbD1bhXm-40" target="2LxV-rshxr4xkbD1bhXm-43">
          <mxGeometry relative="1" as="geometry" />
        </mxCell>
        <mxCell id="2LxV-rshxr4xkbD1bhXm-40" value="val - 1 - 1" style="shape=step;perimeter=stepPerimeter;whiteSpace=wrap;html=1;fixedSize=1;" vertex="1" parent="1">
          <mxGeometry x="1825" y="890" width="126" height="53" as="geometry" />
        </mxCell>
        <mxCell id="2LxV-rshxr4xkbD1bhXm-41" style="edgeStyle=orthogonalEdgeStyle;rounded=0;orthogonalLoop=1;jettySize=auto;html=1;entryX=0;entryY=0.5;entryDx=0;entryDy=0;entryPerimeter=0;" edge="1" parent="1" source="2LxV-rshxr4xkbD1bhXm-43" target="2LxV-rshxr4xkbD1bhXm-44">
          <mxGeometry relative="1" as="geometry" />
        </mxCell>
        <mxCell id="2LxV-rshxr4xkbD1bhXm-42" style="edgeStyle=orthogonalEdgeStyle;rounded=0;orthogonalLoop=1;jettySize=auto;html=1;entryX=0.108;entryY=0.562;entryDx=0;entryDy=0;entryPerimeter=0;" edge="1" parent="1" source="2LxV-rshxr4xkbD1bhXm-43" target="2LxV-rshxr4xkbD1bhXm-46">
          <mxGeometry relative="1" as="geometry" />
        </mxCell>
        <mxCell id="2LxV-rshxr4xkbD1bhXm-43" value="if val &amp;lt;= 1" style="triangle;whiteSpace=wrap;html=1;" vertex="1" parent="1">
          <mxGeometry x="2064" y="846" width="90" height="91.5" as="geometry" />
        </mxCell>
        <mxCell id="2LxV-rshxr4xkbD1bhXm-44" value="1" style="shape=or;whiteSpace=wrap;html=1;" vertex="1" parent="1">
          <mxGeometry x="2184" y="713.5" width="60" height="80" as="geometry" />
        </mxCell>
        <mxCell id="2LxV-rshxr4xkbD1bhXm-45" style="edgeStyle=orthogonalEdgeStyle;rounded=0;orthogonalLoop=1;jettySize=auto;html=1;" edge="1" parent="1" source="2LxV-rshxr4xkbD1bhXm-46" target="2LxV-rshxr4xkbD1bhXm-48">
          <mxGeometry relative="1" as="geometry" />
        </mxCell>
        <mxCell id="2LxV-rshxr4xkbD1bhXm-46" value="val - 1 - 1 - 1" style="shape=step;perimeter=stepPerimeter;whiteSpace=wrap;html=1;fixedSize=1;" vertex="1" parent="1">
          <mxGeometry x="2144" y="1000" width="126" height="53" as="geometry" />
        </mxCell>
        <mxCell id="2LxV-rshxr4xkbD1bhXm-47" style="edgeStyle=orthogonalEdgeStyle;rounded=0;orthogonalLoop=1;jettySize=auto;html=1;entryX=0;entryY=0.5;entryDx=0;entryDy=0;entryPerimeter=0;" edge="1" parent="1" source="2LxV-rshxr4xkbD1bhXm-48" target="2LxV-rshxr4xkbD1bhXm-49">
          <mxGeometry relative="1" as="geometry" />
        </mxCell>
        <mxCell id="2LxV-rshxr4xkbD1bhXm-48" value="if val &amp;lt;= 1" style="triangle;whiteSpace=wrap;html=1;" vertex="1" parent="1">
          <mxGeometry x="2332" y="943.5" width="90" height="91.5" as="geometry" />
        </mxCell>
        <mxCell id="2LxV-rshxr4xkbD1bhXm-49" value="1" style="shape=or;whiteSpace=wrap;html=1;" vertex="1" parent="1">
          <mxGeometry x="2608" y="766" width="60" height="80" as="geometry" />
        </mxCell>
      </root>
    </mxGraphModel>
  </diagram>
</mxfile>
